<?xml version="1.0" encoding="utf-8" ?><svg xmlns="http://www.w3.org/2000/svg" xmlns:xlink="http://www.w3.org/1999/xlink" width="1024" height="1024" viewBox="0 0 1024 1024"><path fill="#100F10" d="M0 0L1024 0L1024 1024L0 1024L0 0Z"></path><path fill="#FBFBFB" d="M500.936 297.638C508.666 290.044 525.056 280.518 529.619 269.184C530.317 265.315 530.534 259.315 530.39 255.544C529.02 219.725 548.688 191.419 582.496 179.243C609.358 169.568 635.813 174.258 662.047 183.46C667.613 185.412 673.401 187.34 678.826 189.899C676.231 197.974 672.952 206.37 670.098 214.397C667.245 222.42 664.436 230.767 661.21 238.602C651.769 233.541 634.15 228.393 623.602 228.212C597.732 227.767 601.074 253.141 601.044 271.211C612.808 270.838 624.836 271.407 636.63 271.144C642.85 271.005 649.44 271.067 655.642 271.372C655.905 286.645 650.463 307.449 638.635 317.88C626.788 318.261 613.189 317.967 601.203 317.993C600.977 323.572 601.001 329.483 601.051 335.068C601.217 353.802 600.765 372.673 601.002 391.388C601.248 410.844 600.024 430.965 602.059 450.249C603.968 468.351 612.323 487.214 627.325 498.109C641.389 508.607 660.781 511.79 677.937 510.241C687.333 509.393 696.851 507.077 706.391 507.786C713.875 508.341 720.851 511.419 728.003 513.436C745.64 518.255 764.812 518.873 782.164 512.674C790.894 509.556 802.863 503.689 809.6 497.39C826.432 481.652 830.401 473.543 854.657 470.303L854.673 837.795C831.981 837.159 807.305 837.698 784.45 837.682L640.671 837.683L169.589 837.527L169.495 646.996L169.476 581.838C169.474 566.602 167.948 546.542 172.344 532.224C177.285 516.127 194.8 511.888 205.096 500.38C216.055 488.13 221.517 473.171 224.662 457.235C225.962 450.775 225.551 440.722 225.552 433.797L225.544 401.953L225.505 356.197C225.495 347.604 225.741 338.485 225.235 329.932C224.044 309.825 214.11 305.131 200.941 293.589C213.914 283.979 239.576 273.962 255.391 274.15C280.305 274.447 291.214 288.53 291.035 312.416C296.311 300.97 305.01 291.124 315.273 283.895C332.331 271.88 347.263 273.505 366.444 276.715C366.2 296.762 363.963 324.692 362.143 344.758C337.985 339.102 311.85 336.243 298.734 362.724C296.633 367.049 295.278 371.698 294.724 376.475C293.373 387.718 294.62 403.47 294.469 415.259C294.29 429.272 293.895 444.437 294.692 458.334C297.987 515.794 374.555 527.705 397.91 475.807C400.942 469.18 402.851 462.095 403.557 454.841C404.271 447.82 404.017 438.251 403.988 431.09L403.883 395.478L403.95 354.336C403.991 330.55 406.596 303.737 381.084 292.232C386.679 287.531 403.201 280.244 410.391 277.478C425.504 272.703 440.672 269.999 455.399 277.642C455.805 277.854 456.209 278.07 456.611 278.289C476.212 293.808 473.089 318.2 473.042 340.835L472.993 409.938C472.991 415.717 472.954 421.604 472.99 427.379C473.161 454.624 469.958 470.137 487.034 493.041C485.25 509.75 471.756 527.703 456.717 534.876C452.06 537.043 446.99 538.288 442.157 540.059C417.078 549.25 400.998 572.487 406.535 599.449C407.342 592.769 408.184 585.697 411.916 579.935C424.026 561.236 436.237 556.283 456.181 550.947C454.209 559.008 448.546 564.634 447.683 573.356C447.402 576.192 446.983 585.207 448.614 587.315C450.142 585.347 451.024 578.595 452.257 576.248C456.006 569.111 461.299 562.806 465.729 556.093C466.728 554.579 471.362 546.135 472.091 545.485C480.34 538.121 490.016 538.96 494.602 525.921C494.979 526.948 495.334 527.983 495.667 529.025C498.36 537.478 499.096 556.543 492.881 563.076C480.036 576.579 474.942 584.687 481.117 604.115C481.769 594.234 482.311 588.937 489.155 581.767C494.527 589.536 498.25 594.171 505.104 600.674C512.787 607.962 513.009 618.733 513.437 628.774C517.788 617.657 517.959 605.39 510.821 595.344C507.892 591.221 497.314 578.567 500.941 573.356C506.383 565.537 509.42 561.859 512.294 552.503C515.282 557.132 517.568 562.225 521.546 566.161C525.754 570.324 530.93 573.782 534.881 578.104C541.296 585.123 541.075 597.719 540.376 606.768C542.934 600.532 543.534 597.162 544.746 590.403C549.138 565.916 519.574 560.449 518.158 537.583C517.984 534.778 516.851 530.32 516.161 527.629C525.416 536.631 532.344 540.927 542.982 547.868C545.89 555.989 553.055 562.502 556.66 570.863C559.151 576.641 558.707 578.898 560.134 584.71L560.719 584.774C565.638 578.847 559.464 559.55 557.564 552.99C567.621 556.265 575.179 557.043 584.13 564.091C598.52 575.423 601.65 581.256 604.333 598.322C605.904 589.221 605.227 581.1 602.13 572.345C597.009 557.869 584.978 547.647 570.933 542.19C565.056 539.907 559.008 537.993 553.255 535.436C541.378 529.314 528.944 516.12 523.045 504.164C521.304 500.635 519.45 494.994 518.143 491.207L518.971 489.853C529.786 472.023 530.013 462.64 529.98 442.749L529.955 413.903L529.944 359.35C529.947 349.881 530.707 329.582 528.726 320.825C526.83 312.444 508.731 301.918 500.936 297.638Z"></path><path fill="#100F10" d="M426.16 611.728C456.233 610.958 484.61 626.654 506.061 646.693C501.202 651.352 496.511 656.183 491.998 661.178C472.333 647.2 450.363 636.338 425.504 639.51C408.82 641.788 393.707 650.553 383.445 663.903C373.888 676.661 369.728 692.663 371.861 708.46C376.529 742.767 410.06 766.689 443.815 760.961C479.911 754.836 521.094 719.736 542.476 691.087C543.032 710.727 539.274 718.822 526.27 734.031C540.72 747.833 568.667 761.008 588.749 761.668C605.549 762.359 621.899 756.144 633.999 744.469C645.864 733.384 652.761 717.985 653.132 701.751C653.44 685.579 647.294 669.95 636.054 658.318C624.38 646.219 608.338 639.311 591.526 639.143C555.508 638.767 522.435 665.926 498.107 689.965C492.54 695.623 487.279 701.574 482.348 707.793L482.254 706.839C480.825 690.908 486.37 679.766 496.733 667.895C519.568 641.737 551.934 615.577 587.329 612.288C610.339 610.008 633.298 617.088 651.027 631.932C669.332 647.116 680.65 669.112 682.363 692.833C686.287 741.517 652.69 784.439 602.723 789.063C566.85 792.382 537.782 770.634 511.858 748.473C489.572 768.686 464.794 787.053 433.468 788.992C410.407 790.317 387.779 782.333 370.655 766.832C359.621 756.95 352.21 745.843 347.262 731.904C326.994 674.812 364.846 614.33 426.16 611.728Z"></path><path fill="#100F10" d="M731.046 554.158C736.334 553.519 751.587 553.914 757.528 553.937C757.181 572.8 757.437 592.51 757.404 611.464L800.205 611.354C800.661 626.706 800.269 644.921 800.238 660.476C785.976 660.657 771.433 660.358 757.125 660.363C756.825 677.605 757.599 695.069 757.161 712.342C756.887 723.166 756.983 739.034 770.039 742.407C781.377 745.337 790.985 739.574 800.384 734.2C799.952 751.325 799.98 768.459 800.471 785.583C798.612 786.462 796.301 787.373 794.376 788.193C769.829 796.728 744.34 797.09 723.45 779.259C700.602 759.758 703.454 729.118 703.244 702.221C703.134 688.179 704.064 672.244 703.062 658.296C698.555 654.454 693.948 650.505 689.22 646.949C684.691 643.544 679.918 640.699 675.592 637.004C683.988 630.132 695.798 620.153 703.583 612.598C703.393 607.314 703.471 601.869 703.388 596.616C703.211 585.412 702.74 575.817 709.723 566.293C715.416 558.529 721.891 555.574 731.046 554.158Z"></path><path fill="#100F10" d="M233.644 608.47C259.797 608.257 282.087 613.088 282.593 643.671C287.622 633.6 290.831 626.411 300.192 619.583C312.279 610.881 327.305 607.288 342.021 609.582C341.561 627.398 340.752 644.933 340.457 662.831C308.737 660.316 292.552 670.076 288.661 702.382C287.9 708.69 288.306 725.137 288.312 731.906L288.43 789.645C270.344 789.786 251.902 789.635 233.819 789.509L233.644 608.47Z"></path><path fill="#FBFBFB" d="M748.973 191.74L754.269 191.956C754.734 201.115 754.485 212.445 754.503 221.769C754.579 238.183 754.568 254.597 754.469 271.01L823.525 271.002C823.612 284.04 823.856 300.432 813.968 310.274C811.013 313.219 807.335 315.334 803.303 316.406C795.702 318.471 763.845 317.897 754.508 317.945L754.505 385.325C754.512 397.283 754.415 409.38 754.671 421.334C754.82 426.963 757.383 436.441 762.437 439.78C779.205 450.859 792.568 439.225 802.134 427.968C806.01 437.261 808.122 446.504 811.155 455.976C813.811 464.272 816.487 470.715 818.516 479.348C812.159 483.222 806.264 487.052 799.717 490.646C796.301 492.404 792.713 494.339 789.211 495.796C761.213 507.446 727.274 504.162 705.154 482.362C681.32 458.873 685.433 421.786 685.444 391.281L685.506 317.862C675.827 317.843 666.149 317.881 656.47 317.976C664.932 302.123 670.785 288.468 674.271 270.934L685.533 271.179L685.404 245.962C685.335 229.478 684.282 216.643 696.889 203.805C711.38 189.049 729.795 191.88 748.973 191.74Z"></path><path fill="#4D0861" d="M410.391 277.478C412.787 274.645 423.473 272.994 427.286 272.663C428.199 272.585 429.113 272.525 430.028 272.483L430 271.872C426.585 270.249 420.251 270.868 416.494 269.748C374.632 257.289 371.246 217.517 385.434 182.284C386.218 180.339 389.812 174.908 391.373 173.748C415.689 155.678 424.694 152.514 454.432 161.707C480.479 169.759 488.378 181.173 496.998 207.748C498.356 212.197 498.896 219.61 497.091 223.814C491.288 250.84 465.236 271.622 437.301 272.287C438.735 272.575 438.117 272.505 439.325 272.375C443.42 271.934 454.956 274.575 456.611 278.289C456.209 278.07 455.805 277.854 455.399 277.642C440.672 269.999 425.504 272.703 410.391 277.478Z"></path><path fill="#FBFBFB" d="M433.473 174.588C455.841 173.086 475.214 189.949 476.811 212.311C478.408 234.672 461.627 254.117 439.272 255.808C416.784 257.509 397.197 240.606 395.591 218.11C393.984 195.615 410.971 176.099 433.473 174.588Z"></path></svg>