<?xml version="1.0" encoding="utf-8" ?><svg xmlns="http://www.w3.org/2000/svg" xmlns:xlink="http://www.w3.org/1999/xlink" width="1024" height="1024" viewBox="0 0 1024 1024"><path fill="#0E0D0E" d="M0 0L1024 0L1024 1024L0 1024L0 0Z"/><path fill="#FEFEFE" d="M500.471 297.788C508.137 290.759 517.072 285.655 524.105 277.501C530.293 271.266 530.475 263.968 530.206 255.418C529.146 221.815 545.793 195.144 577.071 181.543C611.376 166.626 645.629 176.723 678.76 189.835C673.501 205.783 666.869 222.864 661.129 238.816C652.07 233.808 633.54 228.634 623.395 228.49C597.427 228.122 600.917 253.072 601.027 271.456C619.173 271.397 637.318 271.43 655.464 271.556C655.768 285.716 649.998 309.963 637.757 318.25C625.873 318.404 612.987 318.066 601.005 318.021L600.975 402.25C600.98 435.767 596.576 476.116 627.298 498.583C640.334 508.115 660.495 511.986 676.415 510.579C686.332 509.702 696.484 507.326 706.522 508.086C713.558 508.618 720.35 511.639 727.141 513.364C745.338 518.413 765.372 518.935 783.228 512.3C791.613 509.185 802.132 503.934 808.824 497.983C826.368 482.379 830.092 474.133 854.47 470.345L854.561 837.777C827.352 837.201 799.309 837.591 772.022 837.588L628.233 837.58L169.48 837.523L169.438 647.717L169.43 580.674C169.43 569.827 168.992 554.98 169.636 544.344C169.855 540.244 170.73 536.206 172.228 532.383C179.603 513.753 197.655 511.545 208.996 495.708C224.811 473.622 225.475 455.148 225.495 429.496L225.509 391.77L225.499 353.945C225.481 320.808 227.666 314.748 200.698 294.176C208.216 287.811 223.394 281.064 232.801 278.18C258.224 270.384 285.194 272.851 290.807 303.569C292.273 303.876 293.727 304.14 295.163 304.557C314.555 277.298 333.998 270.726 366.053 276.926C366.024 280.432 365.842 284.198 365.607 287.708C364.336 306.645 363.982 326.096 362.014 344.958C348.016 341.82 334.317 338.519 320.124 343.477C310.471 346.878 302.6 354.035 298.299 363.323C292.65 375.46 294.139 400.875 294.392 414.916C294.726 433.493 292.126 459.594 298.511 476.527C303.321 489.004 312.917 499.042 325.165 504.408C338.137 510.309 352.947 510.699 366.211 505.49C381.145 499.73 391.708 489.949 398.162 475.271C400.843 469.167 402.574 462.688 403.294 456.06C404.166 448.155 403.911 438.405 403.905 430.311L403.863 393.223L403.941 354.425C403.986 331.696 405.988 303.039 380.983 292.436C388.245 287.131 396.692 283.429 404.841 279.623C420.498 274.062 435.759 269.542 452.411 276.487C455.357 277.716 458.902 281.023 461.403 282.332C464.806 287.158 468.746 293.08 470.228 298.826C473.67 312.163 472.982 327.769 472.981 341.575L472.919 411.567C472.909 421.467 473.008 431.73 472.897 441.587C472.663 462.461 473.457 476.628 486.827 493.285C485.014 507.54 477.109 520.013 465.968 528.995C457.416 535.888 449.185 537.082 439.565 541.314C412.428 553.252 404.491 571.654 405.618 599.591C406.509 596.068 406.976 590.88 408.148 587.846C416.592 565.984 434.824 556.064 456.077 550.939C451.389 564.405 444.747 570.761 447.94 587.048L448.466 587.332C450.187 584.502 450.414 581.16 451.551 578.216C454.529 570.502 460.584 563.936 465.063 557.034C468.984 550.994 470.611 544.945 477.514 541.77C485.474 538.109 490.442 534.672 494.568 526.567C497.041 535.082 499.849 553.589 494.613 560.457C482.735 576.035 474.268 580.242 480.348 603.147C480.45 603.529 480.558 603.91 480.672 604.288C481.97 594.374 482.081 589.899 488.915 581.778C490.829 584.663 493.875 589.295 496.11 591.786C502.67 599.098 507.031 601.445 511.28 610.635C512.586 610.962 512.935 611.331 513.98 612.18L514.647 611.705C514.642 610.439 514.648 609.173 514.605 607.908L515.512 607.718C513.224 595.952 508.031 593.185 502.253 583.521C501.306 581.937 499.691 577.574 500.157 575.711C501.305 571.124 506.52 566.177 508.76 561.783C510.435 558.496 511.275 555.955 512.32 552.568C524.438 580.001 540.504 565.708 540.54 606.15C542.956 599.644 543.658 595.824 544.466 589.141C547.095 569.628 528.603 563.006 521.02 548.247C518.101 542.567 517.74 534.681 516.412 528.269C523.364 535.583 528.505 538.482 537.008 544.265C544.92 549.647 552.896 564.891 557.352 573.464C558.641 575.944 559.476 584.058 560.047 587.17C564.353 574.253 560.733 565.672 557.283 553.031C582.368 559.491 601.592 571.592 603.936 599.262C607.937 573.498 596.133 552.632 571.763 542.984C565.412 540.137 558.109 538.253 552.069 534.816C533.876 524.464 524.036 510.589 518.119 491.163C530.653 472.194 529.909 460.009 529.899 438.492L529.861 400.652L529.891 357.752C529.925 321.695 535.172 316.2 500.471 297.788Z"/><path fill="#0E0D0E" d="M511.28 610.635C512.586 610.962 512.935 611.331 513.98 612.18L514.647 611.705C514.642 610.439 514.648 609.173 514.605 607.908L515.512 607.718C516.755 614.81 516.058 622.107 513.495 628.836C513.288 621.11 513.235 618.174 511.28 610.635Z"/><path fill="#232326" d="M290.807 303.569C292.273 303.876 293.727 304.14 295.163 304.557L291.126 311.531C291.122 308.798 290.969 306.287 290.807 303.569Z"/><path fill="#0E0D0E" d="M427.925 608.215C466.976 605.696 505.607 633.014 521.135 667.679C530.464 688.506 533.537 702.896 553.639 717.432C566.918 727.034 577.817 736.477 595.276 734.425C603.954 733.397 611.863 728.947 617.246 722.064C628.708 707.454 626.355 684.667 611.234 673.54C604.464 668.487 595.936 666.393 587.596 667.736C579.178 668.96 571.625 673.566 566.682 680.488C560.207 689.374 559.115 698.952 560.702 709.526C541.535 697.595 537.44 681.199 528.984 662.138C526.739 657.075 522.7 651.284 519.433 646.726C520.34 645.552 521.256 644.385 522.18 643.225C535.949 625.957 553.674 614.17 575.411 609.753C600.692 604.615 628.394 612.037 648.314 628.128C667.811 643.858 680.146 666.782 682.53 691.719C685.156 715.892 677.911 740.101 662.438 758.858C646.464 778.463 623.297 790.846 598.121 793.237C587.184 795.515 566.178 790.689 556.103 786.34C530.022 774.845 509.039 754.22 497.096 728.342C489.602 712.027 484.731 693.704 468.878 682.785C457.826 675.173 441.841 665.746 428.083 667.755C419.13 668.991 411.081 673.861 405.832 681.219C389.598 703.944 407.94 739.719 437.86 733.6C446.227 731.832 453.533 726.777 458.137 719.571C463.487 711.36 464.631 700.179 462.422 690.771C485.043 708.02 482.096 728.428 497.859 749.77C499.238 751.638 501.031 753.608 502.591 755.358C473.652 799.731 413.453 805.584 374.119 771.185C312.074 716.925 344.01 613.764 427.925 608.215Z"/><path fill="#0E0D0E" d="M735.666 554.235C742.708 554.009 750.366 554.193 757.46 554.243L757.459 611.468C771.65 611.593 785.842 611.596 800.033 611.476L800.184 660.646C786.822 661.085 771.029 660.652 757.469 660.592C757.272 674.15 757.199 687.71 757.25 701.27C757.213 709.31 756.876 717.727 757.471 725.734C758.052 733.564 762.504 740.894 770.614 742.677C781.842 745.146 790.93 739.853 800.087 734.234C799.783 748.3 799.451 772.619 800.358 786.152C796.809 787.742 792.835 788.974 789.125 790.214C782.061 792.563 774.688 793.85 767.246 794.033C750.305 794.447 733.246 789.502 721.01 777.506C700.581 757.48 703.033 729.722 703.063 703.722C703.172 688.656 703.133 673.59 702.946 658.525C696.272 652.737 689.642 647.365 682.364 642.36C680.07 640.783 677.504 638.973 675.465 637.108C683.736 630.78 695.285 620.137 703.151 613.029C703.779 586.174 698.011 556.154 735.666 554.235Z"/><path fill="#0E0D0E" d="M233.668 608.46C259.062 610.171 282.678 611.978 282.444 643.98C295.517 616.252 311.779 608.375 342.055 609.545C341.225 627.22 340.533 644.902 339.977 662.589C307.912 662.533 292.06 668.843 288.639 703.38C287.996 711.857 288.369 724.699 288.361 733.561L288.374 789.846L233.792 789.763L233.668 608.46Z"/><path fill="#FEFEFE" d="M722.807 192.198C731.692 191.59 744.838 192.038 754.134 192.093C754.961 217.48 754.441 245.711 754.383 271.282C776.933 271.731 800.767 271.408 823.355 271.324C823.368 271.731 823.376 272.137 823.38 272.544C823.449 284.79 822.892 301.28 813.554 310.539C805.265 318.758 792.676 318.025 781.887 318.048C772.745 318.067 763.508 318.035 754.322 318.021C754.764 353.566 753.715 389.669 754.803 425.216C754.947 429.926 758.452 437.862 762.653 440.313C778.332 449.459 792.545 440.994 802.052 427.881C803.816 434.776 818.565 477.624 817.8 480.17L816.3 480.966C807.724 485.492 799.999 491.103 791.002 495.078C762.566 507.641 727.771 505.056 705.02 482.457C681.044 458.641 685.363 423.15 685.371 392.128L685.363 317.995C675.875 318.05 666.387 318.036 656.899 317.954C663.993 298.367 669.424 294.428 674.14 271.17L685.375 271.406L685.274 246.983C685.214 232.043 684.022 219.256 694.164 206.862C701.497 197.901 711.447 193.315 722.807 192.198Z"/><path fill="#4B0B5B" d="M404.841 279.623C408.9 276.03 413.251 276.644 415.511 274.43C415.331 273.627 415.131 273.042 414.285 272.722C396.19 265.88 381.598 253.894 377.107 234.071C373.378 217.612 373.754 196.069 383.413 181.079C389.387 170.994 409.896 158.17 420.367 155.862C435.463 153.015 448.311 155.174 461.579 162.686C465.456 164.882 469.145 166.125 473.447 168.752C488.686 177.966 492.597 194.344 497.096 210.385C499.939 220.521 496.608 228.127 492.755 237.026C486.276 251.987 476.342 262.887 462.145 270.912C459.842 272.214 455.844 274.384 453.722 275.911C455.918 277.574 461.038 280.143 461.403 282.332C458.902 281.023 455.357 277.716 452.411 276.487C435.759 269.542 420.498 274.062 404.841 279.623Z"/><path fill="#780D9B" d="M429.918 169.508C430.389 169.11 430.966 168.622 431.65 168.044C434.216 167.698 439.082 167.937 441.538 168.207C448.474 168.968 455.838 169.224 462.164 172.223C462.43 174.199 461.367 174.154 462.276 176.415C464.71 179.073 465.948 178.641 468.857 179.563C469.506 179.769 471.891 186.066 472.495 186.979C473.487 188.481 475.804 189.486 477.231 190.645C479.482 192.476 479.507 197.561 482.716 198.278C483.348 197.255 483.385 197.185 483.776 196.05L483.904 196.947C484.698 202.295 486.482 206.351 487.634 211.429C489.773 221.52 485.796 232.533 482.528 241.977C480.846 246.839 476.458 247.437 473.118 250.691C469.998 253.73 455.883 264.641 452.175 264.212L451.859 263.581C454.126 261.837 463.021 257.226 463.303 255.958L462.068 255.483L461.747 254.711C460.485 254.758 459.067 255.347 458.12 256.169C451.379 261.664 439.856 262.839 431.585 263.309C422.958 263.8 400.039 255.224 400.171 245.11C396.19 241.657 389.248 228.222 388.218 222.727C386.515 213.644 387.825 199.828 392.816 191.884L393.319 191.895L393.749 193.329L392.576 195.313L392.773 195.723C396.388 192.35 401.262 181.421 405.738 177.822C408.739 175.41 412.239 175.258 416.071 172.255C421.204 172.462 426.004 171.782 430.996 170.62C430.347 169.883 430.579 170.193 429.374 169.829L429.918 169.508Z"/><path fill="#5D0A76" d="M429.918 169.508C430.389 169.11 430.966 168.622 431.65 168.044C434.216 167.698 439.082 167.937 441.538 168.207C448.474 168.968 455.838 169.224 462.164 172.223C462.43 174.199 461.367 174.154 462.276 176.415C464.71 179.073 465.948 178.641 468.857 179.563C469.506 179.769 471.891 186.066 472.495 186.979C473.487 188.481 475.804 189.486 477.231 190.645C479.482 192.476 479.507 197.561 482.716 198.278C483.348 197.255 483.385 197.185 483.776 196.05L483.904 196.947C484.698 202.295 486.482 206.351 487.634 211.429C489.773 221.52 485.796 232.533 482.528 241.977C480.846 246.839 476.458 247.437 473.118 250.691C469.998 253.73 455.883 264.641 452.175 264.212L451.859 263.581C454.126 261.837 463.021 257.226 463.303 255.958L462.068 255.483L461.747 254.711C467.124 252.422 470.736 246.86 474.005 242.177C481.978 230.754 486.258 224.882 483.272 210.453C481.978 204.2 479.643 194.998 474.017 191.12L473.686 191.128C471.6 189.789 468.956 182.775 467.097 181.422C453.887 171.803 445.289 169.045 429.918 169.508Z"/><path fill="#FEFEFE" d="M470.958 237.133C462.28 248.664 452.549 254.998 437.726 256.074C426.937 256.856 415.882 252.117 408.007 244.849C400.059 237.499 395.404 227.258 395.093 216.436C393.984 178.878 438.981 161.325 465.231 187.275C474.309 196.249 476.89 205.867 476.937 218.331C477.081 219.895 477.211 222.547 477.863 223.93L477.839 222.91C478.852 226.549 478.123 228.216 477.629 231.876C474.997 234.55 474.334 235.352 470.958 237.133Z"/><path fill="#5D0A76" d="M470.958 237.133C474.959 229.808 475.803 226.607 476.937 218.331C477.081 219.895 477.211 222.547 477.863 223.93L477.839 222.91C478.852 226.549 478.123 228.216 477.629 231.876C474.997 234.55 474.334 235.352 470.958 237.133Z"/></svg>