<?xml version="1.0" encoding="utf-8" ?><svg xmlns="http://www.w3.org/2000/svg" xmlns:xlink="http://www.w3.org/1999/xlink" width="1024" height="1024" viewBox="0 0 1024 1024"><path fill="#FCFCFB" d="M500.765 297.591C512.034 287.405 529.924 278.098 530.381 262.285C530.574 255.599 530.424 248.403 531.042 241.768C532.747 224.217 540.929 207.93 553.992 196.083C572.132 179.614 595.075 172.635 619.372 173.908C640.896 175.035 659.12 182.187 679.079 189.519C674.355 203.624 667.006 224.927 661.282 238.376C646.442 232.007 612.73 218.168 603.864 239.83C600.166 248.865 600.927 261.337 600.997 271L655.946 271.076C655.367 275.19 655.284 279.371 654.654 283.352C652.544 296.683 648.282 307.81 639.029 317.682C626.537 318.305 613.231 317.262 600.97 317.998L601.059 397.495C601.064 428.86 596.884 467.945 620.934 492.414C633.237 504.931 651.82 510.565 668.98 510.489C681.587 510.545 692.903 507.147 705.19 507.574C712.05 507.812 720.22 511.118 726.853 512.964C742.366 517.282 758.762 518.629 774.492 514.941C784.93 512.493 798.759 506.735 806.839 499.742C823.942 484.938 829.537 472.344 854.412 470.361C853.256 501.43 854.17 537.721 854.16 569.252L854.07 731.302C854.133 766.28 854.715 802.548 854.098 837.36C844.894 836.539 827.76 837.048 817.993 837.056L748.362 837.111L527.887 837.158L297.037 837.25L217.38 837.171C203.245 837.14 183.288 836.519 169.741 837.573C170.161 828.673 169.942 818.566 169.939 809.592L169.931 762.967L169.944 617.994L169.827 574.306C169.742 561.712 169.359 549.413 171.147 536.905C173.459 519.71 188.69 514.171 200.338 504.657C216.17 491.724 225.088 465.432 225.726 445.477C226.321 426.869 225.994 407.288 226 388.491L225.989 354.57C225.973 343.937 226.114 330.765 223.999 320.416C221.657 308.956 208.86 301.014 201.138 293.534C210.076 285.563 231.204 277.7 242.859 275.402C272.1 269.636 291.592 281.645 290.969 312.688C306.763 282.136 332.284 267.202 366.573 276.879C366.924 283.231 365.966 294.204 365.553 300.789C364.614 315.496 363.475 330.189 362.134 344.864C346.535 341.222 327.505 337.438 313.139 346.662C298.47 356.332 293.371 373.416 293.985 390.238C294.287 398.511 293.642 407.101 293.99 415.3C294.944 437.762 290.377 465.539 303.342 485.229C311.288 497.057 323.622 505.229 337.612 507.936C351.302 510.655 366.333 507.469 377.895 499.695C390.029 491.536 399.933 476.127 402.495 461.742C404.347 451.34 404.046 438.752 404.045 428.105L404.026 389.228L404.014 354.174C404.031 329.637 406.434 304.295 380.871 291.946C410.371 272.474 465.703 255.835 472.134 306.925C473.895 320.911 473.056 336.888 473.028 351.133L473.016 426.761C473.035 447.709 470.837 469.202 483.18 487.038C483.868 488.031 486.764 492.602 487.107 493.509C489.779 493.622 515.628 491.758 518.17 490.762C529.754 472.389 529.947 463.574 529.994 442.752L530.022 413.752C530.035 386.34 530.236 358.65 529.739 331.244C529.699 329.054 529.059 323.393 528.469 321.332C525.73 311.761 510.057 302.809 502.098 298.33C501.657 298.079 501.212 297.832 500.765 297.591Z"/><path fill="#100F0F" d="M518.17 490.762C524.521 510.114 535.185 524.931 553.14 535.12C558.73 538.292 567.308 540.288 573.387 543.008C597.986 554.017 606.918 572.425 604.683 598.375C601.083 580.458 598.268 574.312 582.317 562.844C574.848 557.475 566.276 555.333 557.473 553.018C560.055 560.277 564.822 576.403 562.056 583.772L561.049 584.693L560.255 584.548C559.348 581.163 558.978 576.404 557.654 573.41C554.859 567.089 545.928 550.484 540.698 546.575C532.768 540.649 524.69 535.255 516.839 528.278C517.504 532.317 518.213 536.32 518.937 540.342C521.517 554.673 534.879 561.789 541.957 573.365C547.9 583.084 544.562 597.091 540.397 606.893C541.128 598.382 541.376 584.38 535.022 578.386C524.685 568.635 519.8 565.239 512.533 552.687C510.226 558.925 507.235 564.699 503.35 570.102C497.246 578.59 504.499 586.042 509.612 593.127C518.38 605.279 517.892 615.644 513.666 629.421C512.141 599.255 506.128 605.374 489.357 581.452C482.101 589.453 482.008 593.7 480.764 603.934C475.669 583.474 479.282 577.715 492.655 562.681C499.11 555.424 498.126 538.966 495.888 529.765C495.518 528.245 495.126 526.729 494.712 525.22C489.47 539.541 483.823 536.144 473.719 544.421C471.118 546.551 467.717 553.376 465.687 556.253C456.24 569.645 453.359 573.261 448.521 588.578C445.134 568.457 450.337 567.651 456.36 551.075C440.659 553.813 424.096 562.026 414.95 575.35C407.901 585.617 408.716 589.562 406.76 600.369C401.681 572.117 415.678 549.363 443.044 539.638C447.584 538.025 452.37 536.657 456.766 534.689C469.58 528.199 480.488 515.115 484.993 501.52C485.874 498.863 486.044 496.084 487.107 493.509C489.779 493.622 515.628 491.758 518.17 490.762Z"/><path fill="#100F0F" d="M425.811 611.716L426.63 611.654C455.772 609.727 485.48 627.935 506.616 646.413C501.769 650.996 496.797 656.406 492.032 661.209C472.226 647.958 453.097 637.2 428.291 639.176C412.271 640.452 396.218 648.579 385.794 660.791C375.417 673.189 370.344 689.178 371.676 705.291C373.081 721.395 380.842 736.276 393.243 746.646C406.02 757.643 422.711 762.988 439.5 761.458C478.338 757.99 519.036 719.403 542.755 690.721C542.809 712.101 539.62 717.124 526.843 734.092C537.604 744.878 554.507 752.906 568.713 757.886C593.09 766.429 618.823 760.499 636.642 741.599C647.67 729.933 653.586 714.35 653.08 698.305C652.382 682.043 645.304 666.711 633.379 655.633C620.85 644.139 604.213 638.186 587.236 639.123C555.242 640.627 519.972 666.603 498.885 689.709C493.269 695.455 487.812 701.6 482.401 707.56C480.887 693.922 484.687 682.335 493.36 671.847C516.005 644.463 549.335 616.644 585.444 612.45C608.683 609.618 632.077 616.325 650.285 631.04C668.638 645.846 680.221 667.448 682.396 690.929C684.927 715.122 677.677 739.322 662.262 758.139C647.465 775.852 626.234 786.956 603.245 789.007C565.707 792.137 538.577 771.088 511.784 748.284C490.622 767.999 465.56 786.413 435.83 788.765C386.649 792.657 345.445 756.109 342.03 707.062C340.18 682.826 348.19 658.869 364.244 640.618C380.891 621.788 401.013 613.35 425.811 611.716Z"/><path fill="#100F0F" d="M733.832 553.704C741.401 553.376 749.944 553.638 757.593 553.72L757.525 611.371C771.839 611.27 786.153 611.285 800.467 611.417C800.65 627.667 800.493 644.206 800.495 660.479L757.416 660.508C757.049 672.247 757.761 685.435 757.265 696.948C755.75 732.088 759.138 757.345 800.493 734.077C800.246 751.145 800.259 768.216 800.53 785.284C796.671 787.292 793.722 788.339 789.622 789.711C783.076 791.733 776.327 793.028 769.497 793.573C752.303 794.847 736.392 790.346 723.196 779.043C702.606 761.423 703.167 734.217 702.98 709.551C702.853 692.862 704.089 674.926 703.083 658.426C697.648 652.807 682.966 642.702 675.906 637.152C683.703 629.366 694.977 620.466 703.463 612.477C703.544 586.73 698.491 557.087 733.832 553.704Z"/><path fill="#100F0F" d="M233.518 608.482C259.612 608.126 281.501 612.637 282.68 643.252C287.134 633.916 291.328 626.224 299.836 619.865C311.966 610.798 327.326 607.505 342.17 609.628C341.885 626.989 341.603 645.826 340.631 663.089C309.6 659.611 292.963 670.449 289.105 701.879C288.049 710.116 288.479 725.004 288.484 733.968L288.524 789.695C270.551 790.032 251.725 789.712 233.726 789.536L233.518 608.482Z"/><path fill="#FCFCFB" d="M723.627 191.686C728.492 190.934 748.497 191.522 754.345 191.605C753.869 200.963 754.37 212.473 754.445 222.115L754.494 271.031L823.446 270.883C822.496 306.053 819.556 319.186 779.582 317.854C771.769 317.594 762.159 317.881 754.305 317.974C753.413 345.604 754.59 373.677 754.052 401.339C753.901 409.086 753.932 417.102 754.988 424.758C756.477 435.561 763.565 443.425 774.828 443.741C788.348 444.351 793.739 435.705 802.369 427.596C806.956 440.153 810.26 453.478 814.515 466.175C815.842 470.136 817.376 474.557 818.24 478.623C817.355 480.329 816.645 480.354 814.776 481.595C795.614 492.992 779.541 502.59 756.513 502.32C723.013 501.926 694.787 482.857 688.075 449.09C683.802 427.597 685.15 406.089 685.258 384.309L685.495 318.027C675.982 317.749 665.847 317.9 656.289 317.88C665.911 299.751 669.409 291.116 674.437 271.039C678.14 271.046 682.012 270.927 685.729 270.87C685.443 263.248 685.449 255.241 685.438 247.652C685.416 233.345 683.888 219.409 693.357 207.497C701.87 196.788 710.585 193.437 723.627 191.686Z"/><path fill="#FCFCFB" d="M430.857 174.71C453.27 171.764 473.785 187.66 476.53 210.098C479.275 232.537 463.197 252.909 440.735 255.453C418.555 257.965 398.494 242.133 395.784 219.976C393.073 197.82 408.726 177.619 430.857 174.71Z"/><path fill="#E040FF" d="M424.842 126.17C426.415 126.089 427.988 126.02 429.562 125.963C455.628 125.05 476.209 131.977 495.471 150.018C512.177 165.667 520.998 187.624 521.466 210.382C522.095 234.152 513.009 257.15 496.305 274.072C494.606 272.793 493.091 271.306 491.53 269.857C503.583 255.905 511.329 243.096 514.105 224.449C517.361 203.293 512.01 181.714 499.246 164.531C484.998 145.639 465.237 135.792 442.178 132.56C440.288 132.427 438.395 132.336 436.501 132.287C414.861 131.815 393.932 140.02 378.379 155.074C363.021 169.739 354.231 189.982 354.003 211.217C353.733 235.685 362.417 253.325 379.048 270.475C376.538 271.689 375.604 272.709 373.589 274.558C332.763 232.883 340.263 165.598 391.514 136.68C402.659 130.391 412.361 127.986 424.842 126.17Z"/><path fill="#E040FF" d="M429.953 149.288C431.921 149.144 433.85 149.023 435.826 149.036C452.438 149.129 468.314 155.9 479.88 167.825C491.831 180.185 498.313 196.829 497.868 214.016C497.544 233.418 490.673 246.865 476.968 260.115L472.001 255.74C482.042 247.009 489.266 233.646 491.085 220.448C493.075 205.206 488.93 189.797 479.562 177.61C469.053 164.021 455.769 157.774 439.116 155.612C392.29 151.965 360.635 205.72 387.424 244.385C390.214 248.413 393.339 252.079 396.057 256.023L396.334 256.431L392.055 260.099C380.883 250.898 372.798 234.01 371.558 219.74C368.34 182.731 393.047 152.695 429.953 149.288Z"/></svg>